<?xml version="1.0" encoding="UTF-8"?>
<svg version="1.1" xmlns="http://www.w3.org/2000/svg" width="225" height="225">
<path d="M0 0 C2.8645123 1.87587531 4.98265421 3.85020595 7.20703125 6.4453125 C7.20703125 3.4753125 7.20703125 0.5053125 7.20703125 -2.5546875 C8.52703125 -2.8846875 9.84703125 -3.2146875 11.20703125 -3.5546875 C11.20703125 -1.27461912 11.19315432 1.00578641 11.13671875 3.28515625 C11.11867187 4.30738281 11.100625 5.32960938 11.08203125 6.3828125 C11.05882812 7.40246094 11.035625 8.42210938 11.01171875 9.47265625 C11.26578508 13.33954587 11.94417456 16.25584216 14.8203125 18.96484375 C16.20703125 20.4453125 16.20703125 20.4453125 16.5 22.70703125 C16.46519531 23.50753906 16.43039063 24.30804688 16.39453125 25.1328125 C16.35392578 26.34517578 16.35392578 26.34517578 16.3125 27.58203125 C16.27769531 28.19691406 16.24289063 28.81179687 16.20703125 29.4453125 C15.21703125 29.9403125 15.21703125 29.9403125 14.20703125 30.4453125 C13.42284149 32.44543695 12.70451056 34.47157707 12.01953125 36.5078125 C9.07449944 44.38426122 4.85947018 50.89367084 -2.8515625 54.7578125 C-9.20155892 57.00650339 -15.35738618 57.03080499 -21.62890625 54.58203125 C-30.27073043 50.04273371 -35.52981871 42.60493057 -38.54296875 33.5078125 C-38.7646875 32.75628906 -38.98640625 32.00476563 -39.21484375 31.23046875 C-39.64444792 29.4422161 -39.64444792 29.4422161 -40.79296875 28.4453125 C-41.1630128 22.70962968 -41.1630128 22.70962968 -40.79296875 20.4453125 C-39.82288112 19.41626926 -38.82041853 18.41708766 -37.79296875 17.4453125 C-36.90518183 15.48042419 -36.90518183 15.48042419 -36.16796875 13.3203125 C-33.31181631 6.62312747 -27.91117704 0.69173635 -21.35546875 -2.6171875 C-13.26820121 -4.7454158 -7.34358327 -4.04764432 0 0 Z M-31.79296875 8.4453125 C-33.44947338 11.33666604 -34.87832904 14.23461173 -35.79296875 17.4453125 C-35.46296875 18.1053125 -35.13296875 18.7653125 -34.79296875 19.4453125 C-34.40367188 19.04699219 -34.014375 18.64867188 -33.61328125 18.23828125 C-27.39874152 12.35308349 -20.83480969 10.38279049 -12.35546875 10.0078125 C-5.33208426 10.22698194 2.18672563 12.00529012 7.26953125 17.1328125 C7.90890625 17.8959375 8.54828125 18.6590625 9.20703125 19.4453125 C9.86703125 19.7753125 10.52703125 20.1053125 11.20703125 20.4453125 C10.89477696 14.3563539 8.08784444 9.96737594 4.20703125 5.4453125 C-7.41713766 -3.83209024 -21.55537749 -2.26844579 -31.79296875 8.4453125 Z M-11.79296875 13.4453125 C-11.46296875 14.1053125 -11.13296875 14.7653125 -10.79296875 15.4453125 C-10.13296875 15.1153125 -9.47296875 14.7853125 -8.79296875 14.4453125 C-9.11048096 14.90381592 -9.42799316 15.36231934 -9.75512695 15.8347168 C-11.20683621 17.93298341 -12.65616883 20.03288109 -14.10546875 22.1328125 C-14.60498047 22.85404297 -15.10449219 23.57527344 -15.61914062 24.31835938 C-18.13267849 27.96382158 -20.5756082 31.60844629 -22.79296875 35.4453125 C-14.5779858 38.18364015 -4.5040639 37.25112582 3.24609375 33.58203125 C6.74678145 31.55274814 8.65460126 29.84480181 10.14453125 26.0703125 C10.23228276 22.38474925 9.2300635 20.51249042 7.20703125 17.4453125 C2.18033502 13.031628 -5.83415131 9.47276754 -11.79296875 13.4453125 Z M-23.79296875 12.4453125 C-25.08940385 13.20809873 -26.37996023 13.98088209 -27.66796875 14.7578125 C-28.38726563 15.18707031 -29.1065625 15.61632812 -29.84765625 16.05859375 C-32.06143208 17.46283625 -32.06143208 17.46283625 -33.79296875 20.4453125 C-34.25228798 24.57918559 -34.22591758 26.73403942 -32.04296875 30.3203125 C-29.83135978 32.40905431 -28.76546261 33.12683101 -25.79296875 33.4453125 C-24.80296875 29.9803125 -24.80296875 29.9803125 -23.79296875 26.4453125 C-25.44296875 26.7753125 -27.09296875 27.1053125 -28.79296875 27.4453125 C-28.13296875 25.7953125 -27.47296875 24.1453125 -26.79296875 22.4453125 C-24.48296875 22.4453125 -22.17296875 22.4453125 -19.79296875 22.4453125 C-19.79296875 21.1253125 -19.79296875 19.8053125 -19.79296875 18.4453125 C-21.77296875 19.1053125 -23.75296875 19.7653125 -25.79296875 20.4453125 C-25.27734375 19.6821875 -24.76171875 18.9190625 -24.23046875 18.1328125 C-23.75609375 17.2459375 -23.28171875 16.3590625 -22.79296875 15.4453125 C-23.12296875 14.4553125 -23.45296875 13.4653125 -23.79296875 12.4453125 Z M13.20703125 21.4453125 C13.20703125 23.4253125 13.20703125 25.4053125 13.20703125 27.4453125 C13.53703125 27.4453125 13.86703125 27.4453125 14.20703125 27.4453125 C14.20703125 25.4653125 14.20703125 23.4853125 14.20703125 21.4453125 C13.87703125 21.4453125 13.54703125 21.4453125 13.20703125 21.4453125 Z M11.20703125 22.4453125 C11.20703125 24.0953125 11.20703125 25.7453125 11.20703125 27.4453125 C11.53703125 27.4453125 11.86703125 27.4453125 12.20703125 27.4453125 C12.20703125 25.7953125 12.20703125 24.1453125 12.20703125 22.4453125 C11.87703125 22.4453125 11.54703125 22.4453125 11.20703125 22.4453125 Z M-38.79296875 24.4453125 C-37.79296875 27.4453125 -37.79296875 27.4453125 -37.79296875 27.4453125 Z M10.20703125 28.4453125 C9.34078125 29.8065625 9.34078125 29.8065625 8.45703125 31.1953125 C4.32752683 37.16015222 0.37318514 38.95784931 -6.48828125 40.63671875 C-8.96865769 41.50695252 -10.11131448 42.46140011 -11.79296875 44.4453125 C-11.13296875 44.4453125 -10.47296875 44.4453125 -9.79296875 44.4453125 C-9.79296875 45.7653125 -9.79296875 47.0853125 -9.79296875 48.4453125 C-3.75904474 48.06819225 0.56745398 46.3943028 5.20703125 42.4453125 C8.77386282 38.16511461 10.78499967 34.07240021 11.20703125 28.4453125 C10.87703125 28.4453125 10.54703125 28.4453125 10.20703125 28.4453125 Z M-34.79296875 32.4453125 C-33.79296875 34.4453125 -33.79296875 34.4453125 -33.79296875 34.4453125 Z M-33.79296875 34.4453125 C-33.46296875 35.4353125 -33.13296875 36.4253125 -32.79296875 37.4453125 C-32.13296875 37.1153125 -31.47296875 36.7853125 -30.79296875 36.4453125 C-31.78296875 35.7853125 -32.77296875 35.1253125 -33.79296875 34.4453125 Z M-29.79296875 36.4453125 C-30.74799033 38.17008161 -30.74799033 38.17008161 -30.79296875 40.4453125 C-26.69761701 45.53347678 -22.30381057 47.99984056 -15.91796875 49.1328125 C-14.88671875 49.2359375 -13.85546875 49.3390625 -12.79296875 49.4453125 C-13.12296875 47.1353125 -13.45296875 44.8253125 -13.79296875 42.4453125 C-14.44523437 42.26355469 -15.0975 42.08179688 -15.76953125 41.89453125 C-20.72026886 40.47064654 -25.25843298 38.95124016 -29.79296875 36.4453125 Z M-3.35546875 36.4453125 C-10.79173879 38.36919154 -18.28205498 37.55804047 -25.79296875 36.4453125 C-20.0828417 40.97403395 -14.87243732 40.9920624 -7.79296875 40.4453125 C-3.55453106 39.48401735 0.09731898 38.55502477 3.20703125 35.4453125 C0.07172711 35.3101843 0.07172711 35.3101843 -3.35546875 36.4453125 Z M-11.79296875 47.4453125 C-11.79296875 48.1053125 -11.79296875 48.7653125 -11.79296875 49.4453125 C-11.13296875 49.1153125 -10.47296875 48.7853125 -9.79296875 48.4453125 C-10.45296875 48.1153125 -11.11296875 47.7853125 -11.79296875 47.4453125 Z M-5.79296875 49.4453125 C-6.12296875 50.1053125 -6.45296875 50.7653125 -6.79296875 51.4453125 C-5.47296875 50.7853125 -4.15296875 50.1253125 -2.79296875 49.4453125 C-3.78296875 49.4453125 -4.77296875 49.4453125 -5.79296875 49.4453125 Z M-16.79296875 50.4453125 C-14.95412994 52.73259984 -14.95412994 52.73259984 -12.16796875 52.5703125 C-11.38421875 52.5290625 -10.60046875 52.4878125 -9.79296875 52.4453125 C-9.46296875 51.7853125 -9.13296875 51.1253125 -8.79296875 50.4453125 C-11.43296875 50.4453125 -14.07296875 50.4453125 -16.79296875 50.4453125 Z " fill="#4196B7" transform="translate(50.79296875,84.5546875)"/>
<path d="M0 0 C2.0625 0.4375 2.0625 0.4375 4 1 C3.67 1.99 3.34 2.98 3 4 C2.88020855 5.95566503 2.82471504 7.91570766 2.8125 9.875 C2.79832031 10.90367188 2.78414062 11.93234375 2.76953125 12.9921875 C3.06609594 16.86260806 3.73054709 19.80431675 6.61328125 22.51953125 C8 24 8 24 8.29296875 26.26171875 C8.25816406 27.06222656 8.22335938 27.86273438 8.1875 28.6875 C8.14689453 29.89986328 8.14689453 29.89986328 8.10546875 31.13671875 C8.07066406 31.75160156 8.03585938 32.36648437 8 33 C7.01 33.495 7.01 33.495 6 34 C5.21581024 36.00012445 4.49747931 38.02626457 3.8125 40.0625 C0.86746819 47.93894872 -3.34756107 54.44835834 -11.05859375 58.3125 C-17.41262092 60.56261827 -23.52712645 60.55587712 -29.81640625 58.16796875 C-33.7367322 56.07105022 -36.86465791 53.11825576 -40 50 C-38.02 49.505 -38.02 49.505 -36 49 C-36.33 48.34 -36.66 47.68 -37 47 C-35.94232422 47.42925781 -35.94232422 47.42925781 -34.86328125 47.8671875 C-31.98794768 49.00476831 -29.09547814 50.07392356 -26.1875 51.125 C-24.72376953 51.65480469 -24.72376953 51.65480469 -23.23046875 52.1953125 C-22.49441406 52.46085937 -21.75835937 52.72640625 -21 53 C-21.33 50.69 -21.66 48.38 -22 46 C-23.19625 45.896875 -24.3925 45.79375 -25.625 45.6875 C-29.5624176 45.21108648 -32.54140375 43.98869284 -36 42 C-35.34 41.01 -34.68 40.02 -34 39 C-34 39.66 -34 40.32 -34 41 C-24.7132178 44.301967 -16.06101234 43.75864215 -7 40 C-7.53367188 40.144375 -8.06734375 40.28875 -8.6171875 40.4375 C-17.07865265 42.54554668 -24.71155863 42.88293613 -33 40 C-31.25 36.125 -31.25 36.125 -29 35 C-29.33 35.99 -29.66 36.98 -30 38 C-24.634877 40.6825615 -15.56880261 39.65188207 -9.890625 38.2109375 C-5.93348227 36.677252 -2.79513528 35.26946127 0 32 C1.23092593 28.74683861 1.08763096 27.2683698 0 23.9375 C-2.57923393 20.14925017 -4.91837443 19.00230688 -9 17 C-8.01 16.67 -7.02 16.34 -6 16 C-2.42869967 18.04074305 -0.2949791 19.55753136 2 23 C0.45730076 18.27934033 -1.07794619 13.58335908 -3 9 C-2.34 9.33 -1.68 9.66 -1 10 C-1.01160156 9.36191406 -1.02320313 8.72382812 -1.03515625 8.06640625 C-1.04417969 7.24011719 -1.05320313 6.41382812 -1.0625 5.5625 C-1.07410156 4.73878906 -1.08570313 3.91507812 -1.09765625 3.06640625 C-1 1 -1 1 0 0 Z M5 25 C5 26.98 5 28.96 5 31 C5.33 31 5.66 31 6 31 C6 29.02 6 27.04 6 25 C5.67 25 5.34 25 5 25 Z M3 26 C3 27.65 3 29.3 3 31 C3.33 31 3.66 31 4 31 C4 29.35 4 27.7 4 26 C3.67 26 3.34 26 3 26 Z M2 32 C1.13375 33.36125 1.13375 33.36125 0.25 34.75 C-3.87950442 40.71483972 -7.83384611 42.51253681 -14.6953125 44.19140625 C-17.17568894 45.06164002 -18.31834573 46.01608761 -20 48 C-19.34 48 -18.68 48 -18 48 C-18 49.32 -18 50.64 -18 52 C-11.96607599 51.62287975 -7.63957727 49.9489903 -3 46 C0.56683157 41.71980211 2.57796842 37.62708771 3 32 C2.67 32 2.34 32 2 32 Z M-20 51 C-20 51.66 -20 52.32 -20 53 C-19.34 52.67 -18.68 52.34 -18 52 C-18.66 51.67 -19.32 51.34 -20 51 Z M-14 53 C-14.33 53.66 -14.66 54.32 -15 55 C-13.68 54.34 -12.36 53.68 -11 53 C-11.99 53 -12.98 53 -14 53 Z M-25 54 C-23.16116119 56.28728734 -23.16116119 56.28728734 -20.375 56.125 C-19.59125 56.08375 -18.8075 56.0425 -18 56 C-17.67 55.34 -17.34 54.68 -17 54 C-19.64 54 -22.28 54 -25 54 Z " fill="#D5D9D6" transform="translate(59,81)"/>
<path d="M0 0 C1.76923828 0.01353516 1.76923828 0.01353516 3.57421875 0.02734375 C4.47785156 0.03894531 5.38148437 0.05054687 6.3125 0.0625 C6.3125 2.3725 6.3125 4.6825 6.3125 7.0625 C5.31347656 7.12308594 4.31445312 7.18367188 3.28515625 7.24609375 C1.99480469 7.32988281 0.70445313 7.41367188 -0.625 7.5 C-1.91277344 7.58121094 -3.20054688 7.66242188 -4.52734375 7.74609375 C-7.54773957 7.71169188 -7.54773957 7.71169188 -8.6875 9.0625 C-9.02090471 12.02054573 -9.02090471 12.02054573 -8.6875 15.0625 C-5.49987635 17.18758244 -3.42237777 17.5645163 0.3125 18.0625 C0.3125 16.7425 0.3125 15.4225 0.3125 14.0625 C-1.6675 14.0625 -3.6475 14.0625 -5.6875 14.0625 C-6.0175 12.0825 -6.3475 10.1025 -6.6875 8.0625 C-2.3975 8.0625 1.8925 8.0625 6.3125 8.0625 C6.3125 13.3425 6.3125 18.6225 6.3125 24.0625 C-6.94024725 24.50425824 -6.94024725 24.50425824 -11.6875 21.0625 C-14.72075858 18.18888661 -15.60329685 16.73612523 -16.125 12.5625 C-15.50836829 7.62944631 -13.50151528 4.24084607 -9.6875 1.0625 C-6.26517028 -0.07827657 -3.60076783 -0.03565117 0 0 Z " fill="#0CC2F4" transform="translate(103.6875,92.9375)"/>
<path d="M0 0 C2.38722915 1.85482552 4.04979682 3.41369294 5.12890625 6.265625 C5.17015625 6.8225 5.21140625 7.379375 5.25390625 7.953125 C2.44140625 8.140625 2.44140625 8.140625 -0.74609375 7.953125 C-1.22046875 7.4375 -1.69484375 6.921875 -2.18359375 6.390625 C-2.69921875 5.91625 -3.21484375 5.441875 -3.74609375 4.953125 C-7.3915122 5.18789699 -7.3915122 5.18789699 -10.74609375 5.953125 C-11.89692515 10.02391708 -11.89692515 10.02391708 -10.62109375 13.828125 C-8.11347087 15.33269873 -6.62488572 15.3849438 -3.74609375 14.953125 C-3.27171875 14.458125 -2.79734375 13.963125 -2.30859375 13.453125 C-0.74609375 11.953125 -0.74609375 11.953125 2.44140625 11.765625 C3.36953125 11.8275 4.29765625 11.889375 5.25390625 11.953125 C3.9023662 16.37634697 2.15664521 18.46956384 -1.74609375 20.953125 C-5.67534419 22.23440232 -7.46420736 22.04390197 -11.43359375 20.765625 C-14.71201134 18.97177386 -15.87224967 18.06880657 -17.74609375 14.953125 C-18.60230205 10.20926818 -18.43015561 6.16923497 -16.05859375 1.953125 C-11.17156567 -2.27349388 -5.88267902 -3.52697534 0 0 Z " fill="#F7F7F7" transform="translate(192.74609375,95.046875)"/>
<path d="M0 0 C-0.66 0.66 -1.32 1.32 -2 2 C-4.33333333 1.66666667 -6.66666667 1.33333333 -9 1 C-9.66 1.66 -10.32 2.32 -11 3 C-10.34 3 -9.68 3 -9 3 C-10.66365123 6.55884154 -12.71999792 9.78120438 -14.875 13.0625 C-15.55304687 14.10535156 -16.23109375 15.14820313 -16.9296875 16.22265625 C-18.81573274 18.75280374 -20.31794152 20.37842071 -23 22 C-23.66 22 -24.32 22 -25 22 C-25.625 20.1875 -25.625 20.1875 -26 18 C-25.34 17.01 -24.68 16.02 -24 15 C-25.98 15.66 -27.96 16.32 -30 17 C-29.34 15.02 -28.68 13.04 -28 11 C-25.23735711 10.40267181 -22.83967231 10 -20 10 C-20 9.34 -20 8.68 -20 8 C-21.98 8.33 -23.96 8.66 -26 9 C-25.21302675 5.58978257 -24.12880057 2.31114834 -23 -1 C-15.17826956 -2.76483087 -7.56702403 -2.69049743 0 0 Z " fill="#22B9DE" transform="translate(51,96)"/>
<path d="M0 0 C0.928125 0.165 1.85625 0.33 2.8125 0.5 C5 1 5 1 6 2 C6.23880597 9.52238806 6.23880597 9.52238806 5 12 C3.02 12 1.04 12 -1 12 C-1.33 11.01 -1.66 10.02 -2 9 C-2 9.99 -2 10.98 -2 12 C-2.99 11.67 -3.98 11.34 -5 11 C-5 10.01 -5 9.02 -5 8 C-5.66 8 -6.32 8 -7 8 C-7 9.65 -7 11.3 -7 13 C-7.66 12.67 -8.32 12.34 -9 12 C-9 8.7 -9 5.4 -9 2 C-10.32 2.33 -11.64 2.66 -13 3 C-13.33 3.66 -13.66 4.32 -14 5 C-12.68 5 -11.36 5 -10 5 C-10.33 5.99 -10.66 6.98 -11 8 C-11.99 8 -12.98 8 -14 8 C-14 8.66 -14 9.32 -14 10 C-12.68 10 -11.36 10 -10 10 C-10 10.99 -10 11.98 -10 13 C-12.97 12.67 -15.94 12.34 -19 12 C-19 11.34 -19 10.68 -19 10 C-19.99 10 -20.98 10 -22 10 C-22 10.66 -22 11.32 -22 12 C-22.99 11.67 -23.98 11.34 -25 11 C-24.01 7.37 -23.02 3.74 -22 0 C-21.01 0 -20.02 0 -19 0 C-18.34 2.31 -17.68 4.62 -17 7 C-16.67 4.69 -16.34 2.38 -16 0 C-14.906875 0.020625 -13.81375 0.04125 -12.6875 0.0625 C-0.703125 -0.140625 -0.703125 -0.140625 0 0 Z M-7 3 C-7 3.99 -7 4.98 -7 6 C-6.01 5.67 -5.02 5.34 -4 5 C-4 4.34 -4 3.68 -4 3 C-4.99 3 -5.98 3 -7 3 Z M1 3 C1 5.31 1 7.62 1 10 C1.99 10 2.98 10 4 10 C4 7.69 4 5.38 4 3 C3.01 3 2.02 3 1 3 Z " fill="#40ABC9" transform="translate(137,122)"/>
<path d="M0 0 C0.495 1.485 0.495 1.485 1 3 C-2.48641149 8.68835559 -6.76362958 11.95900605 -13 14 C-14.134375 14.391875 -15.26875 14.78375 -16.4375 15.1875 C-17.283125 15.455625 -18.12875 15.72375 -19 16 C-19 17.65 -19 19.3 -19 21 C-14.27934033 19.45730076 -9.58335908 17.92205381 -5 16 C-5.6875 18.4375 -5.6875 18.4375 -7 21 C-9.25 21.6875 -9.25 21.6875 -12 22 C-12.86625 22.350625 -13.7325 22.70125 -14.625 23.0625 C-19.420783 24.39466194 -24.05418628 24.15840685 -29 24 C-29 23.01 -29 22.02 -29 21 C-26.69 21.33 -24.38 21.66 -22 22 C-22.33 19.69 -22.66 17.38 -23 15 C-24.794375 14.8453125 -24.794375 14.8453125 -26.625 14.6875 C-30.5624176 14.21108648 -33.54140375 12.98869284 -37 11 C-36.34 10.01 -35.68 9.02 -35 8 C-35 8.66 -35 9.32 -35 10 C-25.7132178 13.301967 -17.06101234 12.75864215 -8 9 C-8.53367187 9.144375 -9.06734375 9.28875 -9.6171875 9.4375 C-18.07865265 11.54554668 -25.71155863 11.88293613 -34 9 C-32.25 5.125 -32.25 5.125 -30 4 C-30.33 4.99 -30.66 5.98 -31 7 C-25.64234261 9.67882869 -16.6104431 8.6401722 -10.92578125 7.24609375 C-6.50884042 5.56250644 -2.98453617 3.79850057 0 0 Z M-21 20 C-21 20.66 -21 21.32 -21 22 C-20.34 21.67 -19.68 21.34 -19 21 C-19.66 20.67 -20.32 20.34 -21 20 Z " fill="#CED7D5" transform="translate(60,112)"/>
<path d="M0 0 C3.80501929 1.26833976 4.06064534 2.40430931 5.91796875 5.875 C6.44970703 6.85984375 6.98144531 7.8446875 7.52929688 8.859375 C8.35010742 10.41398437 8.35010742 10.41398437 9.1875 12 C9.74630859 13.03640625 10.30511719 14.0728125 10.88085938 15.140625 C15 22.82566392 15 22.82566392 15 24 C11.8125 24.5 11.8125 24.5 8 24 C5.79031306 21.63643514 4.49881175 18.84676908 3 16 C2.04572052 14.64297354 1.08750302 13.28870616 0.125 11.9375 C-1.86874047 8.78489789 -2.00126301 8.03978492 -1.875 4.0625 C-1 1 -1 1 0 0 Z " fill="#0FBCF2" transform="translate(124,93)"/>
<path d="M0 0 C0.66 0 1.32 0 2 0 C2 3.3 2 6.6 2 10 C3.65 10.33 5.3 10.66 7 11 C7 7.37 7 3.74 7 0 C7.66 0 8.32 0 9 0 C9 3.3 9 6.6 9 10 C9.66 10 10.32 10 11 10 C11 6.7 11 3.4 11 0 C18.75 -0.125 18.75 -0.125 21 1 C21.02688151 2.64574566 21.04634123 4.29161413 21.0625 5.9375 C21.07410156 6.85402344 21.08570313 7.77054688 21.09765625 8.71484375 C21 11 21 11 20 12 C18.5112814 12.08669432 17.018555 12.10703494 15.52734375 12.09765625 C14.62822266 12.09443359 13.72910156 12.09121094 12.80273438 12.08789062 C11.85720703 12.07951172 10.91167969 12.07113281 9.9375 12.0625 C8.98810547 12.05798828 8.03871094 12.05347656 7.06054688 12.04882812 C4.70700469 12.03700128 2.35349468 12.01906521 0 12 C0 8.04 0 4.08 0 0 Z M17 2 C16.67 2.99 16.34 3.98 16 5 C16.99 5 17.98 5 19 5 C19 4.01 19 3.02 19 2 C18.34 2 17.68 2 17 2 Z M13 4 C14 6 14 6 14 6 Z M17 7 C16.67 7.99 16.34 8.98 16 10 C16.99 10 17.98 10 19 10 C19 9.01 19 8.02 19 7 C18.34 7 17.68 7 17 7 Z " fill="#E3E7E6" transform="translate(195,122)"/>
<path d="M0 0 C3.59844802 1.19948267 3.75899612 1.8614909 5.4453125 5.11328125 C6.10080078 6.3672168 6.10080078 6.3672168 6.76953125 7.64648438 C7.21683594 8.52626953 7.66414062 9.40605469 8.125 10.3125 C8.58003906 11.18068359 9.03507813 12.04886719 9.50390625 12.94335938 C13.15233343 19.99662438 13.15233343 19.99662438 14 24 C11.33984375 24.47265625 11.33984375 24.47265625 8 24 C5.69053691 21.7886132 4.17831886 19.17883692 2.5625 16.4375 C2.10423828 15.73302734 1.64597656 15.02855469 1.17382812 14.30273438 C-1.14420382 10.50927334 -2.02277768 8.59280363 -1.84765625 4.03515625 C-1 1 -1 1 0 0 Z " fill="#F7F6F7" transform="translate(162,93)"/>
<path d="M0 0 C1.98 0 3.96 0 6 0 C6.226875 1.093125 6.45375 2.18625 6.6875 3.3125 C7.66952513 7.09517842 7.66952513 7.09517842 10.5 9 C11.325 9.33 12.15 9.66 13 10 C13.66 9.67 14.32 9.34 15 9 C15.33 9.99 15.66 10.98 16 12 C14.6875 13.5 14.6875 13.5 13 15 C12.01 15 11.02 15 10 15 C10.55728913 18.34373475 11.35173889 21.03312999 13 24 C10.08756343 23.66394963 8.46736011 23.46664968 6 22 C2.82094899 16.91163728 1.36394677 10.94446397 1 5 C1.33 4.01 1.66 3.02 2 2 C1.34 2 0.68 2 0 2 C0 1.34 0 0.68 0 0 Z M5 10 C6 12 6 12 6 12 Z M6 12 C6.33 12.99 6.66 13.98 7 15 C7.66 14.67 8.32 14.34 9 14 C8.01 13.34 7.02 12.68 6 12 Z " fill="#61A6BA" transform="translate(11,107)"/>
<path d="M0 0 C0.99 0 1.98 0 3 0 C3.33 2.64 3.66 5.28 4 8 C4.66 8 5.32 8 6 8 C6 5.36 6 2.72 6 0 C6.66 0 7.32 0 8 0 C8.66 1.65 9.32 3.3 10 5 C10.66 3.35 11.32 1.7 12 0 C12.99 0 13.98 0 15 0 C15 3.96 15 7.92 15 12 C14.0925 11.814375 13.185 11.62875 12.25 11.4375 C9.26956829 11.03628804 7.78045493 11.10628234 5 12 C4.34 12 3.68 12 3 12 C3 11.34 3 10.68 3 10 C1.02 10.66 -0.96 11.32 -3 12 C-2.01 8.04 -1.02 4.08 0 0 Z " fill="#39A8C8" transform="translate(94,122)"/>
<path d="M0 0 C0.66 0 1.32 0 2 0 C2.08636719 0.62648438 2.17273438 1.25296875 2.26171875 1.8984375 C2.68626709 4.36782875 3.14272416 6.64356842 4 9 C6.47014472 10.67613187 6.47014472 10.67613187 9 11 C9 9.68 9 8.36 9 7 C7.68 6.67 6.36 6.34 5 6 C4.375 4.125 4.375 4.125 4 2 C6 0 6 0 8.8203125 -0.1953125 C9.91085938 -0.17210938 11.00140625 -0.14890625 12.125 -0.125 C13.22070312 -0.10695313 14.31640625 -0.08890625 15.4453125 -0.0703125 C16.28835937 -0.04710938 17.13140625 -0.02390625 18 0 C18 0.66 18 1.32 18 2 C17.34 2 16.68 2 16 2 C16 5.3 16 8.6 16 12 C15.34 12 14.68 12 14 12 C14 8.7 14 5.4 14 2 C13.01 2 12.02 2 11 2 C11 2.66 11 3.32 11 4 C10.34 4 9.68 4 9 4 C9 3.34 9 2.68 9 2 C8.34 2.66 7.68 3.32 7 4 C7.66 4.391875 8.32 4.78375 9 5.1875 C11 7 11 7 11.25 9.6875 C11.1675 10.450625 11.085 11.21375 11 12 C2.42857143 12.28571429 2.42857143 12.28571429 -1 10 C-1 10.66 -1 11.32 -1 12 C-1.66 12 -2.32 12 -3 12 C-2.49202991 7.6822542 -1.80317221 3.96697886 0 0 Z M0 5 C0 5.99 0 6.98 0 8 C0.66 7.67 1.32 7.34 2 7 C1.34 6.34 0.68 5.68 0 5 Z " fill="#EBEEEC" transform="translate(150,122)"/>
<path d="M0 0 C1.48831242 0.00667405 2.97660807 0.01863442 4.46484375 0.03515625 C5.22345703 0.03966797 5.98207031 0.04417969 6.76367188 0.04882812 C8.64326246 0.06064945 10.52281274 0.07858547 12.40234375 0.09765625 C12.40234375 0.75765625 12.40234375 1.41765625 12.40234375 2.09765625 C11.74234375 2.09765625 11.08234375 2.09765625 10.40234375 2.09765625 C10.40234375 5.39765625 10.40234375 8.69765625 10.40234375 12.09765625 C9.74234375 12.09765625 9.08234375 12.09765625 8.40234375 12.09765625 C8.07234375 9.12765625 7.74234375 6.15765625 7.40234375 3.09765625 C6.41234375 2.76765625 5.42234375 2.43765625 4.40234375 2.09765625 C4.40234375 5.39765625 4.40234375 8.69765625 4.40234375 12.09765625 C3.08234375 12.09765625 1.76234375 12.09765625 0.40234375 12.09765625 C-0.58765625 12.42765625 -1.57765625 12.75765625 -2.59765625 13.09765625 C-5.59765625 11.09765625 -5.59765625 11.09765625 -6.41015625 8.78515625 C-6.62872946 5.65227354 -5.99078512 3.88391399 -4.59765625 1.09765625 C-3.59765625 0.09765625 -3.59765625 0.09765625 0 0 Z M-3.59765625 3.09765625 C-3.59765625 5.40765625 -3.59765625 7.71765625 -3.59765625 10.09765625 C-2.60765625 10.09765625 -1.61765625 10.09765625 -0.59765625 10.09765625 C-0.90703125 9.16953125 -0.90703125 9.16953125 -1.22265625 8.22265625 C-1.40828125 7.17078125 -1.40828125 7.17078125 -1.59765625 6.09765625 C-0.93765625 5.43765625 -0.27765625 4.77765625 0.40234375 4.09765625 C-0.91765625 3.76765625 -2.23765625 3.43765625 -3.59765625 3.09765625 Z " fill="#44ACBF" transform="translate(79.59765625,121.90234375)"/>
<path d="M0 0 C9.5 0 9.5 0 14 1 C14.02688151 2.64574566 14.04634123 4.29161413 14.0625 5.9375 C14.07410156 6.85402344 14.08570313 7.77054688 14.09765625 8.71484375 C14 11 14 11 13 12 C11.33382885 12.04063832 9.66611905 12.042721 8 12 C7.34 10.68 6.68 9.36 6 8 C6.33 9.32 6.66 10.64 7 12 C6.01 11.67 5.02 11.34 4 11 C4 10.01 4 9.02 4 8 C3.34 8 2.68 8 2 8 C2 9.32 2 10.64 2 12 C1.34 12 0.68 12 0 12 C0 8.04 0 4.08 0 0 Z M2 2 C2 3.32 2 4.64 2 6 C2.99 5.67 3.98 5.34 5 5 C4.67 4.01 4.34 3.02 4 2 C3.34 2 2.68 2 2 2 Z M10 2 C8.58422523 3.18424326 8.58422523 3.18424326 8.9375 6.5625 C8.958125 7.696875 8.97875 8.83125 9 10 C9.99 10 10.98 10 12 10 C12 7.36 12 4.72 12 2 C11.34 2 10.68 2 10 2 Z " fill="#F0F2F2" transform="translate(169,122)"/>
<path d="M0 0 C1.32 0.33 2.64 0.66 4 1 C5.0686132 4.20583961 5.31727934 6.27191495 3.953125 9.40234375 C2.69255716 11.64374668 1.38949795 13.83642188 0 16 C-2.64 16 -5.28 16 -8 16 C-5.25 9.125 -5.25 9.125 -3 8 C-2.28293018 6.01751285 -1.61709587 4.01584651 -1 2 C-0.67 1.34 -0.34 0.68 0 0 Z " fill="#12C0F2" transform="translate(119,101)"/>
<path d="M0 0 C1.51400391 0.01740234 1.51400391 0.01740234 3.05859375 0.03515625 C4.07050781 0.04417969 5.08242188 0.05320312 6.125 0.0625 C7.29869141 0.07990234 7.29869141 0.07990234 8.49609375 0.09765625 C8.6505962 3.51387717 8.68036534 4.80418669 6.80859375 7.78515625 C4.42688169 10.16686831 2.68570947 11.12305145 -0.50390625 12.09765625 C-1.12890625 10.28515625 -1.12890625 10.28515625 -1.50390625 8.09765625 C-0.84390625 7.10765625 -0.18390625 6.11765625 0.49609375 5.09765625 C-1.48390625 5.75765625 -3.46390625 6.41765625 -5.50390625 7.09765625 C-3.27951797 0.12790632 -3.27951797 0.12790632 0 0 Z " fill="#29B6D5" transform="translate(26.50390625,105.90234375)"/>
<path d="M0 0 C0.99 0 1.98 0 3 0 C4.15794759 4.98808193 4.48888123 7.94976596 1.9375 12.5 C0.546875 14.5 0.546875 14.5 -1 16 C-4.3125 16.5 -4.3125 16.5 -7 16 C-6.40165275 11.85701333 -4.99335715 8.81805623 -2.9375 5.1875 C-2.11572266 3.72376953 -2.11572266 3.72376953 -1.27734375 2.23046875 C-0.85582031 1.49441406 -0.43429688 0.75835937 0 0 Z " fill="#42B9D7" transform="translate(157,101)"/>
<path d="M0 0 C0.66 0.66 1.32 1.32 2 2 C1.01 4.64 0.02 7.28 -1 10 C-0.32904297 9.36771484 -0.32904297 9.36771484 0.35546875 8.72265625 C6.3602812 3.28119508 6.3602812 3.28119508 11 3 C9.12745606 5.08060438 7.40545353 6.37159155 5 7.875 C1.9026303 10.0689702 0.89526772 11.8125043 -1 15 C-3.1875 15.8125 -3.1875 15.8125 -5 16 C-5 17.65 -5 19.3 -5 21 C-5.66 20.67 -6.32 20.34 -7 20 C-7.29296875 14.04296875 -7.29296875 14.04296875 -7 12 C-6.0334921 10.96759384 -5.02924903 9.96986928 -4 9 C-2.7951851 6.73972655 -2.7951851 6.73972655 -1.8125 4.3125 C-1.46832031 3.50425781 -1.12414062 2.69601563 -0.76953125 1.86328125 C-0.38861328 0.94095703 -0.38861328 0.94095703 0 0 Z " fill="#5A98AC" transform="translate(17,93)"/>
<path d="M0 0 C4.29 0 8.58 0 13 0 C13 5.28 13 10.56 13 16 C11.123125 16.04125 9.24625 16.0825 7.3125 16.125 C6.25675781 16.14820312 5.20101562 16.17140625 4.11328125 16.1953125 C0.97748141 15.99858729 -1.17645373 15.33057654 -4 14 C-0.45049966 12.83693557 2.55823948 13.07634951 6.25 13.4375 C9.09625 13.7159375 9.09625 13.7159375 12 14 C12 10.04 12 6.08 12 2 C8.7 2 5.4 2 2 2 C2 2.99 2 3.98 2 5 C3.65 5 5.3 5 7 5 C7 5.33 7 5.66 7 6 C5.02 6 3.04 6 1 6 C0.67 4.02 0.34 2.04 0 0 Z " fill="#30B7DB" transform="translate(97,101)"/>
<path d="M0 0 C0.99 0.33 1.98 0.66 3 1 C3 1.66 3 2.32 3 3 C2.01 3.33 1.02 3.66 0 4 C1.63461737 10.04808425 4.52008773 15.80226844 8 21 C8.99 21.33 9.98 21.66 11 22 C10.649375 21.4225 10.29875 20.845 9.9375 20.25 C9 18 9 18 10 14 C11.65 17.3 13.3 20.6 15 24 C11.8125 24.5 11.8125 24.5 8 24 C5.79031306 21.63643514 4.49881175 18.84676908 3 16 C2.04572052 14.64297354 1.08750302 13.28870616 0.125 11.9375 C-1.86874047 8.78489789 -2.00126301 8.03978492 -1.875 4.0625 C-1 1 -1 1 0 0 Z " fill="#38BADC" transform="translate(124,93)"/>
<path d="M0 0 C2.33944736 0.28730055 4.6739143 0.61936779 7 1 C7.02688151 2.64574566 7.04634123 4.29161413 7.0625 5.9375 C7.07410156 6.85402344 7.08570313 7.77054688 7.09765625 8.71484375 C7 11 7 11 6 12 C4.00041636 12.04080783 1.99954746 12.04254356 0 12 C-0.19401633 10.18818595 -0.38004375 8.37551468 -0.5625 6.5625 C-0.66691406 5.55316406 -0.77132812 4.54382813 -0.87890625 3.50390625 C-0.91886719 2.67761719 -0.95882812 1.85132812 -1 1 C-0.67 0.67 -0.34 0.34 0 0 Z M3 2 C2.67 2.99 2.34 3.98 2 5 C2.99 5 3.98 5 5 5 C5 4.01 5 3.02 5 2 C4.34 2 3.68 2 3 2 Z M3 7 C2.67 7.99 2.34 8.98 2 10 C2.99 10 3.98 10 5 10 C5 9.01 5 8.02 5 7 C4.34 7 3.68 7 3 7 Z " fill="#DBDDDC" transform="translate(209,122)"/>
<path d="M0 0 C0.99 0.33 1.98 0.66 3 1 C3 2.32 3 3.64 3 5 C7.72065967 3.45730076 12.41664092 1.92205381 17 0 C16.3125 2.4375 16.3125 2.4375 15 5 C12.75 5.6875 12.75 5.6875 10 6 C8.700625 6.5259375 8.700625 6.5259375 7.375 7.0625 C2.579217 8.39466194 -2.05418628 8.15840685 -7 8 C-7 7.01 -7 6.02 -7 5 C-4.69 5.33 -2.38 5.66 0 6 C0 4.02 0 2.04 0 0 Z M1 4 C1 4.66 1 5.32 1 6 C1.66 5.67 2.32 5.34 3 5 C2.34 4.67 1.68 4.34 1 4 Z " fill="#E6E7E5" transform="translate(38,128)"/>
<path d="M0 0 C2.0625 0.4375 2.0625 0.4375 4 1 C3.67 1.99 3.34 2.98 3 4 C2.68176803 10.4020785 2.8531748 16.69246139 4 23 C1.79812328 20.79812328 0.71821071 18.77114318 -0.6875 16 C-1.37392578 14.6696875 -1.37392578 14.6696875 -2.07421875 13.3125 C-2.37972656 12.549375 -2.68523438 11.78625 -3 11 C-2.67 10.34 -2.34 9.68 -2 9 C-1.67 9.33 -1.34 9.66 -1 10 C-1.01160156 9.36191406 -1.02320313 8.72382812 -1.03515625 8.06640625 C-1.04417969 7.24011719 -1.05320313 6.41382812 -1.0625 5.5625 C-1.07410156 4.73878906 -1.08570313 3.91507812 -1.09765625 3.06640625 C-1 1 -1 1 0 0 Z " fill="#E7EBED" transform="translate(59,81)"/>
<path d="M0 0 C4.55555556 0.55555556 4.55555556 0.55555556 6 2 C6.23880597 9.52238806 6.23880597 9.52238806 5 12 C3.02 12 1.04 12 -1 12 C-1.22162329 10.37675914 -1.42689803 8.751279 -1.625 7.125 C-1.74101562 6.22007812 -1.85703125 5.31515625 -1.9765625 4.3828125 C-1.98429688 3.59648438 -1.99203125 2.81015625 -2 2 C-1.34 1.34 -0.68 0.68 0 0 Z M1 3 C1 5.31 1 7.62 1 10 C1.99 10 2.98 10 4 10 C4 7.69 4 5.38 4 3 C3.01 3 2.02 3 1 3 Z " fill="#80C3CF" transform="translate(137,122)"/>
<path d="M0 0 C0 3.01490557 -0.51952735 4.86864114 -1.5 7.6875 C-1.91765625 8.89986328 -1.91765625 8.89986328 -2.34375 10.13671875 C-2.66859375 11.05904297 -2.66859375 11.05904297 -3 12 C-2.2575 11.773125 -1.515 11.54625 -0.75 11.3125 C2 11 2 11 3.8125 12.375 C7.05897563 14.78666761 10.00245224 14.66687102 14 15 C11 17 11 17 8.0625 16.75 C5.40473321 16.09911834 3.35482933 15.35855538 1 14 C0.67 15.32 0.34 16.64 0 18 C-2.790071 15.12273928 -3.93351879 13.5318497 -4.4375 9.5 C-3.9421493 5.53719441 -2.84563205 2.84563205 0 0 Z " fill="#25BAE6" transform="translate(92,96)"/>
<path d="M0 0 C0.99 0 1.98 0 3 0 C3.1953125 2.05078125 3.390625 4.1015625 3.5859375 6.15234375 C3.72257812 6.76207031 3.85921875 7.37179688 4 8 C4.66 8.33 5.32 8.66 6 9 C5.67 9.99 5.34 10.98 5 12 C4.34 12 3.68 12 3 12 C3 11.34 3 10.68 3 10 C1.02 10.66 -0.96 11.32 -3 12 C-2.01 8.04 -1.02 4.08 0 0 Z " fill="#4FAAC4" transform="translate(94,122)"/>
<path d="M0 0 C5.21460651 3.33155416 6.87015789 7.43147425 9 13 C2.55786925 11.78450363 2.55786925 11.78450363 0 8.1875 C-1.04212921 4.86571316 -1.05707701 3.26732895 0 0 Z " fill="#4AA0BA" transform="translate(15,118)"/>
<path d="M0 0 C3 1 3 1 4.4375 3.75 C5 7 5 7 3.125 9.875 C2.42375 10.57625 1.7225 11.2775 1 12 C-0.5625 10.4375 -0.5625 10.4375 -2 8 C-1.56363636 1.56363636 -1.56363636 1.56363636 0 0 Z " fill="#1EB6DF" transform="translate(162,93)"/>
<path d="M0 0 C0.99 0.33 1.98 0.66 3 1 C2.67 1.99 2.34 2.98 2 4 C3.65 2.68 5.3 1.36 7 0 C7 3.3 7 6.6 7 10 C6.01 9.67 5.02 9.34 4 9 C4 8.01 4 7.02 4 6 C3.34 6 2.68 6 2 6 C2 7.65 2 9.3 2 11 C1.34 10.67 0.68 10.34 0 10 C0 6.7 0 3.4 0 0 Z " fill="#51A3BB" transform="translate(128,124)"/>
<path d="M0 0 C-0.99 1.485 -0.99 1.485 -2 3 C-4.3828125 3.29296875 -4.3828125 3.29296875 -7.125 3.1875 C-8.03507812 3.16042969 -8.94515625 3.13335937 -9.8828125 3.10546875 C-10.58148438 3.07066406 -11.28015625 3.03585938 -12 3 C-12.33 3.66 -12.66 4.32 -13 5 C-11.68 5 -10.36 5 -9 5 C-9.33 5.99 -9.66 6.98 -10 8 C-11.32 7.67 -12.64 7.34 -14 7 C-14.33 4.69 -14.66 2.38 -15 0 C-13.906875 0.020625 -12.81375 0.04125 -11.6875 0.0625 C-0.52112676 -0.12676056 -0.52112676 -0.12676056 0 0 Z " fill="#38B5CE" transform="translate(136,122)"/>
<path d="M0 0 C1.76923828 0.01353516 1.76923828 0.01353516 3.57421875 0.02734375 C4.47785156 0.03894531 5.38148437 0.05054687 6.3125 0.0625 C6.3125 2.0425 6.3125 4.0225 6.3125 6.0625 C4.9925 5.7325 3.6725 5.4025 2.3125 5.0625 C2.6425 4.0725 2.9725 3.0825 3.3125 2.0625 C-1.3075 2.3925 -5.9275 2.7225 -10.6875 3.0625 C-8.63221196 -1.04807609 -4.03316787 -0.03993236 0 0 Z " fill="#28AFD5" transform="translate(103.6875,92.9375)"/>
<path d="M0 0 C3.63 0 7.26 0 11 0 C11 0.66 11 1.32 11 2 C10.34 2 9.68 2 9 2 C9 5.3 9 8.6 9 12 C8.34 12 7.68 12 7 12 C6.67 9.03 6.34 6.06 6 3 C4.35 3 2.7 3 1 3 C0.67 2.01 0.34 1.02 0 0 Z " fill="#48B0CD" transform="translate(81,122)"/>
<path d="M0 0 C0.33 1.32 0.66 2.64 1 4 C0.43152344 4.23074219 -0.13695312 4.46148437 -0.72265625 4.69921875 C-6.03012821 6.94093896 -10.42652939 9.49691613 -15 13 C-12.53905873 7.27042391 -7.54762306 3.22073605 -2 0.5625 C-1.01 0.2840625 -1.01 0.2840625 0 0 Z " fill="#57A2BF" transform="translate(33,81)"/>
<path d="M0 0 C5.94 0.99 5.94 0.99 12 2 C12.33 2.99 12.66 3.98 13 5 C8.6835078 5.76173392 5.25566547 6.16063604 1 5 C1.33 4.34 1.66 3.68 2 3 C1.34 2.67 0.68 2.34 0 2 C0 1.34 0 0.68 0 0 Z " fill="#C9CEC9" transform="translate(30,135)"/>
<path d="M0 0 C-0.33 0.99 -0.66 1.98 -1 3 C-1.99 2.34 -2.98 1.68 -4 1 C-3.67 3.64 -3.34 6.28 -3 9 C-2.01 8.34 -1.02 7.68 0 7 C0 8.32 0 9.64 0 11 C-1.66611905 11.042721 -3.33382885 11.04063832 -5 11 C-6 10 -6 10 -6.09765625 7.71484375 C-6.08605469 6.79832031 -6.07445312 5.88179687 -6.0625 4.9375 C-6.05347656 4.01839844 -6.04445312 3.09929687 -6.03515625 2.15234375 C-6.02355469 1.44207031 -6.01195312 0.73179688 -6 0 C-3.50907189 -1.24546405 -2.58919267 -0.7767578 0 0 Z " fill="#EDF0EF" transform="translate(194,123)"/>
<path d="M0 0 C-1.65167557 3.5786304 -3.78286492 6.74820188 -6 10 C-6.33 9.01 -6.66 8.02 -7 7 C-7.99 7.33 -8.98 7.66 -10 8 C-10 7.34 -10 6.68 -10 6 C-9.34 5.67 -8.68 5.34 -8 5 C-8 4.34 -8 3.68 -8 3 C-5.04518508 0.25624329 -4.22528092 0 0 0 Z " fill="#32A0C6" transform="translate(42,99)"/>
<path d="M0 0 C2.64 0 5.28 0 8 0 C7.67 1.65 7.34 3.3 7 5 C4.36 5 1.72 5 -1 5 C-0.67 3.35 -0.34 1.7 0 0 Z " fill="#07BDF6" transform="translate(30,96)"/>
<path d="M0 0 C1.09570312 0.00902344 2.19140625 0.01804687 3.3203125 0.02734375 C4.16335937 0.03894531 5.00640625 0.05054687 5.875 0.0625 C5.545 1.0525 5.215 2.0425 4.875 3.0625 C0.585 3.0625 -3.705 3.0625 -8.125 3.0625 C-8.125 2.4025 -8.125 1.7425 -8.125 1.0625 C-5.36047967 -0.31976016 -3.0788637 -0.03275387 0 0 Z " fill="#04BFF9" transform="translate(101.125,94.9375)"/>
<path d="M0 0 C1.98 0 3.96 0 6 0 C5.690625 0.5775 5.38125 1.155 5.0625 1.75 C4.07416636 3.84294184 3.4831387 5.74535275 3 8 C5.475 8.99 5.475 8.99 8 10 C7.34 10.66 6.68 11.32 6 12 C5.67 11.67 5.34 11.34 5 11 C4.34 11.66 3.68 12.32 3 13 C0.96315288 8.92630576 0.9742741 6.41062136 2 2 C1.34 2 0.68 2 0 2 C0 1.34 0 0.68 0 0 Z " fill="#47B4CB" transform="translate(11,107)"/>
<path d="M0 0 C0.66 0 1.32 0 2 0 C2.33 0.99 2.66 1.98 3 3 C2.07421875 4.82421875 2.07421875 4.82421875 0.6875 6.6875 C0.23761719 7.31011719 -0.21226563 7.93273437 -0.67578125 8.57421875 C-1.11277344 9.04472656 -1.54976562 9.51523438 -2 10 C-2.66 10 -3.32 10 -4 10 C-4.33 9.01 -4.66 8.02 -5 7 C-4.07421875 5.17578125 -4.07421875 5.17578125 -2.6875 3.3125 C-2.23761719 2.68988281 -1.78773437 2.06726563 -1.32421875 1.42578125 C-0.88722656 0.95527344 -0.45023438 0.48476562 0 0 Z " fill="#C9CECE" transform="translate(58,123)"/>
<path d="M0 0 C0.66 0 1.32 0 2 0 C3.6875 2.375 3.6875 2.375 5 5 C4.67 5.66 4.34 6.32 4 7 C3.34 6.67 2.68 6.34 2 6 C1.67 6.66 1.34 7.32 1 8 C0.01 8.495 0.01 8.495 -1 9 C-1.625 6.1875 -1.625 6.1875 -2 3 C-1.34 2.01 -0.68 1.02 0 0 Z " fill="#E8F4F3" transform="translate(166,100)"/>
<path d="M0 0 C1.65 0 3.3 0 5 0 C5 1.65 5 3.3 5 5 C3.68 5 2.36 5 1 5 C0.01 5.33 -0.98 5.66 -2 6 C-2.99 5.01 -3.98 4.02 -5 3 C-4.34 2.67 -3.68 2.34 -3 2 C-2.01 2.33 -1.02 2.66 0 3 C0 2.01 0 1.02 0 0 Z " fill="#519EBE" transform="translate(79,129)"/>
<path d="M0 0 C0.33 0.99 0.66 1.98 1 3 C2.65 2.34 4.3 1.68 6 1 C6.33 3.64 6.66 6.28 7 9 C6.01 8.67 5.02 8.34 4 8 C4 7.01 4 6.02 4 5 C3.34 5 2.68 5 2 5 C2 6.32 2 7.64 2 9 C1.34 9 0.68 9 0 9 C0 6.03 0 3.06 0 0 Z " fill="#F2F3F1" transform="translate(169,125)"/>
<path d="M0 0 C3.85645121 -0.22036864 6.49223216 0.39644899 10 2 C9.01 2.495 9.01 2.495 8 3 C8 5.31 8 7.62 8 10 C7.67 10 7.34 10 7 10 C6.731875 9.05125 6.46375 8.1025 6.1875 7.125 C5.25013412 3.74732727 5.25013412 3.74732727 2 2 C1.67 3.32 1.34 4.64 1 6 C0.67 4.02 0.34 2.04 0 0 Z " fill="#E5E9E6" transform="translate(169,122)"/>
<path d="M0 0 C0.33 0.66 0.66 1.32 1 2 C0.14453125 3.9453125 0.14453125 3.9453125 -1.1875 6.125 C-1.61417969 6.84945312 -2.04085937 7.57390625 -2.48046875 8.3203125 C-2.98191406 8.87460938 -3.48335937 9.42890625 -4 10 C-5.32 10 -6.64 10 -8 10 C-6.34908222 5.70761377 -3.26245434 3.1206085 0 0 Z " fill="#C1F1F6" transform="translate(160,107)"/>
<path d="M0 0 C0.99 0 1.98 0 3 0 C3 3.96 3 7.92 3 12 C2.01 12 1.02 12 0 12 C-0.33 11.01 -0.66 10.02 -1 9 C-0.34 9 0.32 9 1 9 C1.33 7.68 1.66 6.36 2 5 C1.34 5 0.68 5 0 5 C0 3.35 0 1.7 0 0 Z " fill="#4FACD1" transform="translate(106,122)"/>
<path d="M0 0 C2.74277578 3.19990508 4.6302836 6.00499382 6 10 C3.69 10 1.38 10 -1 10 C-1 9.34 -1 8.68 -1 8 C-0.01 8 0.98 8 2 8 C1.67 7.4225 1.34 6.845 1 6.25 C0 4 0 4 0 0 Z " fill="#2CB4DD" transform="translate(133,107)"/>
<path d="M0 0 C0.99 0.33 1.98 0.66 3 1 C3.73046875 2.84765625 3.73046875 2.84765625 4.1875 5.0625 C4.34605469 5.79597656 4.50460938 6.52945313 4.66796875 7.28515625 C4.83232422 8.13400391 4.83232422 8.13400391 5 9 C1.1640625 8.2265625 1.1640625 8.2265625 -0.3125 6.1875 C-1.10151327 3.67700322 -0.87324262 2.44507934 0 0 Z " fill="#06C0F5" transform="translate(130,106)"/>
<path d="M0 0 C0.33 0 0.66 0 1 0 C1 2.97 1 5.94 1 9 C-0.32 9.33 -1.64 9.66 -3 10 C-2.25 3.375 -2.25 3.375 0 0 Z " fill="#07BEF5" transform="translate(92,98)"/>
<path d="M0 0 C6.40629424 -0.20852314 11.92972642 -0.1583195 18 2 C17.34 2.66 16.68 3.32 16 4 C13.8359375 3.9765625 13.8359375 3.9765625 11.375 3.625 C10.55773438 3.51414062 9.74046875 3.40328125 8.8984375 3.2890625 C8.27195312 3.19367188 7.64546875 3.09828125 7 3 C7 2.34 7 1.68 7 1 C4.69 1 2.38 1 0 1 C0 0.67 0 0.34 0 0 Z " fill="#64A0B3" transform="translate(33,94)"/>
<path d="M0 0 C0.33 0 0.66 0 1 0 C1 1.65 1 3.3 1 5 C1.66 5.33 2.32 5.66 3 6 C2.67 6.66 2.34 7.32 2 8 C3.32 8 4.64 8 6 8 C6 8.99 6 9.98 6 11 C3.03 10.67 0.06 10.34 -3 10 C-2.01 9.34 -1.02 8.68 0 8 C0.36297936 6.02252878 0.36297936 6.02252878 0.1875 3.875 C0.125625 2.59625 0.06375 1.3175 0 0 Z " fill="#55A5BC" transform="translate(121,124)"/>
<path d="M0 0 C5.03985731 0.44469329 7.37634988 2.71343362 11 6 C10.67 6.66 10.34 7.32 10 8 C8.32819726 7.05065487 6.66266064 6.09026687 5 5.125 C4.071875 4.59132813 3.14375 4.05765625 2.1875 3.5078125 C1.465625 3.01023437 0.74375 2.51265625 0 2 C0 1.34 0 0.68 0 0 Z " fill="#629BAD" transform="translate(45,83)"/>
<path d="M0 0 C2.0625 0.4375 2.0625 0.4375 4 1 C3.690625 1.680625 3.38125 2.36125 3.0625 3.0625 C1.86629351 6.36965912 1.40994603 9.51545878 1 13 C0.67 13 0.34 13 0 13 C-0.19397476 11.02145742 -0.38001321 9.0421352 -0.5625 7.0625 C-0.66691406 5.96035156 -0.77132812 4.85820313 -0.87890625 3.72265625 C-0.91886719 2.82417969 -0.95882812 1.92570312 -1 1 C-0.67 0.67 -0.34 0.34 0 0 Z " fill="#7F9FA8" transform="translate(59,81)"/>
<path d="M0 0 C0 1.32 0 2.64 0 4 C-0.66 4 -1.32 4 -2 4 C-2.33 4.99 -2.66 5.98 -3 7 C-3.66 7 -4.32 7 -5 7 C-5 5.02 -5 3.04 -5 1 C-3 0 -3 0 0 0 Z " fill="#0ABDF4" transform="translate(33,108)"/>
<path d="M0 0 C1.98 0.495 1.98 0.495 4 1 C4.6875 3.8125 4.6875 3.8125 5 7 C3.5625 8.875 3.5625 8.875 2 10 C2.061875 9.236875 2.12375 8.47375 2.1875 7.6875 C2.25898085 4.95474688 2.25898085 4.95474688 0.5 3.1875 C0.005 2.795625 -0.49 2.40375 -1 2 C-0.67 1.34 -0.34 0.68 0 0 Z " fill="#28CAE8" transform="translate(119,101)"/>
<path d="M0 0 C0.99 0 1.98 0 3 0 C3.33 1.98 3.66 3.96 4 6 C3.01 6.495 3.01 6.495 2 7 C2 6.01 2 5.02 2 4 C0.35 5.32 -1.3 6.64 -3 8 C-1.125 2.25 -1.125 2.25 0 0 Z " fill="#37B0CF" transform="translate(157,101)"/>
<path d="M0 0 C0.268125 0.639375 0.53625 1.27875 0.8125 1.9375 C1.88667752 4.33131686 1.88667752 4.33131686 5 5 C5 3.35 5 1.7 5 0 C5.66 1.32 6.32 2.64 7 4 C5.68 5.65 4.36 7.3 3 9 C0.90250005 6.64031256 0.03094296 5.45383006 -0.1875 2.25 C-0.125625 1.5075 -0.06375 0.765 0 0 Z " fill="#3FADCC" transform="translate(160,96)"/>
<path d="M0 0 C0.99 1.98 1.98 3.96 3 6 C-0.4375 5.1875 -0.4375 5.1875 -4 4 C-4.33 3.01 -4.66 2.02 -5 1 C-2 0 -2 0 0 0 Z " fill="#A0B2BA" transform="translate(21,125)"/>
<path d="M0 0 C0.66 0 1.32 0 2 0 C2.33 1.98 2.66 3.96 3 6 C1.02 6.99 1.02 6.99 -1 8 C-2.2077558 4.37673261 -1.54311128 3.35853631 0 0 Z " fill="#E1EAE7" transform="translate(150,122)"/>
<path d="M0 0 C0.33 1.32 0.66 2.64 1 4 C2.32 4 3.64 4 5 4 C5 4.66 5 5.32 5 6 C2.36 6 -0.28 6 -3 6 C-2.01 4.02 -1.02 2.04 0 0 Z " fill="#2BB5D6" transform="translate(114,111)"/>
<path d="M0 0 C0.33 0 0.66 0 1 0 C0.88637738 1.4800841 0.75877092 2.95910074 0.625 4.4375 C0.52058594 5.67306641 0.52058594 5.67306641 0.4140625 6.93359375 C0.27742188 7.61550781 0.14078125 8.29742187 0 9 C-0.99 9.495 -0.99 9.495 -2 10 C-2.6875 8.375 -2.6875 8.375 -3 6 C-1.5625 2.75 -1.5625 2.75 0 0 Z " fill="#ECF0EF" transform="translate(62,115)"/>
<path d="M0 0 C2.50037734 2.17424117 3.43628586 3.73045798 4 7 C2.35 7.33 0.7 7.66 -1 8 C-1.33 7.01 -1.66 6.02 -2 5 C-1.34 5 -0.68 5 0 5 C0 3.35 0 1.7 0 0 Z " fill="#23BAEB" transform="translate(129,100)"/>
<path d="M0 0 C0.33 0.66 0.66 1.32 1 2 C1.66 2 2.32 2 3 2 C2.67 3.32 2.34 4.64 2 6 C1.34 6 0.68 6 0 6 C0 6.66 0 7.32 0 8 C-0.66 8 -1.32 8 -2 8 C-2.33 7.01 -2.66 6.02 -3 5 C-2.34 5 -1.68 5 -1 5 C-0.67 3.35 -0.34 1.7 0 0 Z " fill="#3B9EBB" transform="translate(105,125)"/>
<path d="M0 0 C1.2065625 0.0309375 1.2065625 0.0309375 2.4375 0.0625 C1.963125 0.5575 1.48875 1.0525 1 1.5625 C-1.18417907 5.05718651 -1.22163911 7.97216936 -1.5625 12.0625 C-1.8925 12.0625 -2.2225 12.0625 -2.5625 12.0625 C-2.75651633 10.25068595 -2.94254375 8.43801468 -3.125 6.625 C-3.22941406 5.61566406 -3.33382812 4.60632813 -3.44140625 3.56640625 C-3.48136719 2.74011719 -3.52132812 1.91382812 -3.5625 1.0625 C-2.5625 0.0625 -2.5625 0.0625 0 0 Z " fill="#B9C0BB" transform="translate(211.5625,121.9375)"/>
<path d="M0 0 C0.66 0 1.32 0 2 0 C0.9024777 2.99324263 0.32317108 3.84610901 -2.625 5.25 C-3.40875 5.4975 -4.1925 5.745 -5 6 C-5.33 4.68 -5.66 3.36 -6 2 C-5.34 1.67 -4.68 1.34 -4 1 C-4 1.66 -4 2.32 -4 3 C-3.01 2.67 -2.02 2.34 -1 2 C-0.67 1.34 -0.34 0.68 0 0 Z " fill="#36BCD8" transform="translate(31,112)"/>
<path d="M0 0 C0.66 0 1.32 0 2 0 C1.67 1.65 1.34 3.3 1 5 C-0.32 5.33 -1.64 5.66 -3 6 C-1.125 1.125 -1.125 1.125 0 0 Z " fill="#16B8E7" transform="translate(157,105)"/>
<path d="M0 0 C0.99 0.495 0.99 0.495 2 1 C2 2.32 2 3.64 2 5 C3.32 5 4.64 5 6 5 C5.67 5.99 5.34 6.98 5 8 C3.68 7.67 2.36 7.34 1 7 C0.67 4.69 0.34 2.38 0 0 Z " fill="#48B4C9" transform="translate(121,122)"/>
<path d="M0 0 C0.66 0.99 1.32 1.98 2 3 C1.67 3.99 1.34 4.98 1 6 C0.01 6 -0.98 6 -2 6 C-2 4.35 -2 2.7 -2 1 C-1.34 0.67 -0.68 0.34 0 0 Z " fill="#3E9BB2" transform="translate(16,109)"/>
<path d="M0 0 C0.66 0.66 1.32 1.32 2 2 C1.01 3.98 0.02 5.96 -1 8 C-1.66 8 -2.32 8 -3 8 C-1.125 1.125 -1.125 1.125 0 0 Z " fill="#568496" transform="translate(17,93)"/>
<path d="" fill="#00FFFF" transform="translate(0,0)"/>
<path d="" fill="#00FFFF" transform="translate(0,0)"/>
<path d="" fill="#808080" transform="translate(0,0)"/>
<path d="" fill="#00FFFF" transform="translate(0,0)"/>
</svg>
